<?xml version="1.0" standalone="no"?>
<!DOCTYPE svg PUBLIC "-//W3C//DTD SVG 20010904//EN"
 "http://www.w3.org/TR/2001/REC-SVG-20010904/DTD/svg10.dtd">
<svg version="1.0" xmlns="http://www.w3.org/2000/svg"
 width="1174.000000pt" height="1280.000000pt" viewBox="0 0 1174.000000 1280.000000"
 preserveAspectRatio="xMidYMid meet">
<g transform="translate(0.000000,1280.000000) scale(0.100000,-0.100000)"
fill="#47FF63" stroke="none">
<path d="M4485 12790 c-3 -5 -14 -10 -24 -10 -18 0 -161 -71 -372 -183 -397
-212 -1260 -516 -1854 -652 -310 -71 -455 -124 -602 -222 -137 -90 -290 -287
-408 -523 -76 -151 -225 -630 -225 -722 0 -47 -33 -119 -100 -217 -81 -119
-116 -211 -131 -338 -11 -105 -30 -162 -61 -190 -61 -55 -92 -173 -113 -420
-23 -272 -28 -293 -165 -734 -155 -493 -259 -873 -324 -1180 -46 -214 -62
-333 -76 -554 -6 -99 -15 -221 -21 -272 -15 -151 -12 -245 11 -306 23 -62 18
-59 215 -125 66 -22 191 -65 277 -95 199 -71 458 -142 568 -156 47 -6 171 -15
275 -21 570 -31 555 -29 645 -97 52 -39 89 -60 173 -98 24 -11 39 -26 44 -43
9 -37 -12 -134 -68 -313 -69 -221 -88 -313 -95 -464 -7 -143 8 -358 33 -470
31 -143 30 -165 -26 -336 -66 -205 -85 -318 -78 -468 5 -131 28 -227 83 -359
95 -228 97 -235 98 -307 0 -58 -7 -91 -44 -195 -42 -120 -44 -130 -44 -245 -1
-97 3 -132 20 -185 27 -81 40 -256 54 -740 17 -578 36 -757 106 -997 31 -106
49 -138 94 -166 35 -22 41 -22 470 -22 399 -1 447 -3 577 -23 177 -28 340 -65
598 -135 349 -96 534 -135 775 -162 80 -9 177 -23 215 -32 59 -13 133 -14 475
-10 617 8 904 30 1232 97 284 59 521 138 1106 369 677 268 830 313 1292 376
205 28 209 31 238 156 24 107 24 700 -1 909 -21 176 -48 310 -82 409 -14 41
-25 89 -25 107 0 18 31 113 69 211 128 333 151 435 151 682 0 176 -10 226 -64
348 -44 98 -47 161 -16 334 75 423 78 456 86 1074 5 346 10 502 18 507 6 4 65
8 131 8 206 1 322 40 451 152 110 96 127 102 464 173 420 88 835 217 1062 331
119 60 180 130 159 183 -6 14 -18 67 -26 116 -18 98 -59 269 -100 417 -107
380 -346 1152 -480 1553 -117 347 -109 312 -110 545 -1 235 -12 283 -85 400
-86 137 -98 173 -125 361 -63 449 -234 1107 -345 1323 -123 241 -304 401 -635
562 -199 96 -398 174 -950 369 -795 281 -943 344 -1206 513 -159 102 -180 112
-228 112 -22 0 -97 -20 -167 -45 -297 -105 -588 -159 -1004 -185 -544 -33
-954 14 -1330 156 -144 54 -371 151 -384 165 -13 12 -63 12 -71 -1z m89 -363
c102 -171 164 -254 301 -408 175 -196 378 -366 519 -434 109 -52 299 -112 419
-131 101 -16 113 -16 215 0 253 41 579 189 767 349 202 172 463 439 588 600
33 42 66 77 74 77 22 0 180 -108 214 -147 26 -31 30 -42 26 -74 -9 -68 -119
-266 -243 -435 -245 -335 -585 -575 -978 -688 -213 -62 -275 -71 -511 -71
-190 0 -236 3 -335 23 -428 87 -835 328 -1114 662 -138 165 -283 399 -326 529
-24 73 -19 99 29 145 34 33 251 157 262 150 4 -2 46 -69 93 -147z m335 -23
c334 -112 420 -127 806 -145 198 -9 297 -8 566 5 415 21 528 34 792 98 130 31
160 30 140 -6 -20 -36 -218 -247 -266 -285 -72 -55 -125 -77 -274 -111 -189
-44 -317 -54 -718 -54 -309 -1 -374 2 -460 17 -226 42 -468 112 -538 157 -50
32 -101 93 -208 250 -69 102 -84 140 -52 140 9 0 104 -30 212 -66z m-779 -246
c45 -84 104 -185 131 -223 110 -160 488 -538 639 -639 133 -89 381 -201 556
-250 192 -54 254 -61 499 -61 212 1 240 3 360 28 612 130 1073 481 1399 1065
66 118 93 152 121 154 11 1 119 -36 240 -81 262 -99 370 -138 655 -238 613
-214 872 -315 1068 -419 325 -171 468 -341 582 -692 l43 -132 -80 -143 c-150
-268 -257 -427 -287 -427 -7 0 -17 25 -24 60 -13 70 -63 178 -99 212 -21 20
-35 23 -103 23 -90 0 -135 -22 -135 -66 0 -24 2 -24 90 -24 50 0 96 -4 103 -8
24 -16 51 -85 58 -148 9 -88 -8 -144 -49 -169 -18 -11 -100 -88 -184 -171 -84
-83 -158 -149 -165 -147 -24 8 -19 76 18 255 45 215 64 325 57 336 -15 24 -49
-21 -83 -110 -23 -61 -79 -327 -109 -518 -51 -325 -65 -554 -111 -1850 -39
-1091 -57 -1516 -71 -1632 -15 -131 -102 -415 -400 -1308 -275 -826 -372
-1098 -521 -1465 -155 -380 -258 -601 -392 -845 -36 -66 -66 -123 -66 -127 0
-5 13 -8 30 -8 24 0 38 10 70 51 152 193 423 824 760 1769 54 151 150 412 212
580 63 168 136 364 162 435 69 188 102 241 122 198 13 -30 17 -624 5 -803 -22
-316 -87 -702 -153 -908 -100 -313 -397 -873 -928 -1747 -146 -240 -178 -306
-156 -324 7 -6 21 -8 30 -5 58 22 624 985 958 1629 169 326 181 342 223 293
50 -59 58 -278 16 -473 -38 -176 -139 -439 -247 -644 -95 -180 -129 -221 -471
-578 -218 -227 -293 -316 -280 -329 13 -13 93 43 194 134 129 118 410 414 518
547 62 76 80 93 91 84 35 -29 80 -227 110 -479 21 -183 30 -616 15 -693 -16
-73 -36 -85 -177 -97 -137 -12 -201 -24 -361 -65 -247 -65 -477 -146 -976
-346 -639 -256 -1032 -362 -1567 -421 -74 -8 -263 -13 -535 -13 -351 0 -442 3
-555 18 -263 36 -580 102 -875 182 -560 153 -799 190 -1270 200 -326 7 -351
10 -371 40 -52 79 -93 495 -114 1154 -12 370 -19 437 -61 579 -36 119 -36 118
23 302 46 145 58 254 39 352 -7 35 -37 124 -67 199 -73 184 -87 249 -87 389 1
139 15 208 90 443 57 177 57 178 44 235 -54 242 -62 296 -67 432 -8 181 6 274
81 540 30 107 59 213 64 235 6 22 17 49 25 60 23 32 42 4 82 -124 76 -243 312
-883 407 -1101 203 -469 647 -1243 926 -1614 126 -167 344 -396 378 -396 36 0
-5 71 -132 225 -191 231 -265 335 -396 552 -327 541 -737 1365 -899 1808 -111
303 -449 1374 -510 1615 -34 134 -91 434 -115 600 -9 63 -18 126 -21 140 -3
14 -9 126 -13 250 -5 129 -18 282 -30 360 -61 408 -76 615 -75 1070 0 359 3
418 28 650 54 507 58 555 53 680 -7 221 -50 304 -225 436 -61 46 -112 88 -112
93 0 14 -64 32 -86 25 -73 -23 -79 -37 -100 -229 -18 -180 -25 -201 -61 -188
-21 8 -117 160 -170 268 -55 113 -57 142 -23 245 26 79 106 249 157 333 59
100 161 225 222 273 66 53 180 113 271 142 36 12 166 46 290 76 564 138 1317
384 1651 540 41 19 84 35 96 35 17 1 35 -26 103 -151z m1240 -319 c154 -37
287 -49 585 -49 280 0 495 14 595 39 55 13 79 15 89 7 21 -16 -31 -54 -178
-130 -214 -110 -361 -146 -596 -146 -149 0 -219 16 -351 79 -196 94 -314 173
-314 212 0 26 22 25 170 -12z m-3546 -1207 c60 -45 138 -157 162 -232 35 -108
16 -474 -27 -526 -25 -31 -71 -13 -189 74 -147 109 -260 236 -260 292 0 34 11
39 70 33 34 -4 49 -1 59 11 7 9 22 73 32 144 23 157 28 180 45 215 20 37 49
35 108 -11z m8652 -197 c47 -114 114 -485 150 -835 10 -99 23 -130 80 -190 29
-31 64 -78 76 -106 22 -46 23 -60 20 -223 -3 -213 1 -229 137 -644 183 -558
491 -1558 491 -1597 0 -26 -16 -36 -115 -71 -159 -56 -274 -89 -628 -180 -346
-88 -376 -98 -409 -127 -50 -43 41 -42 242 3 141 32 278 68 695 184 77 21 161
41 187 45 46 7 48 6 68 -26 11 -18 30 -64 41 -101 25 -81 19 -103 -38 -141
-164 -108 -1088 -365 -1274 -354 l-54 3 1 80 c0 44 8 229 17 410 28 549 36
944 63 3118 l6 507 80 123 c44 67 87 130 96 140 25 28 51 21 68 -18z m-9211
-48 c17 -25 45 -71 64 -101 81 -130 340 -390 532 -533 l91 -68 -5 -55 c-25
-239 -29 -360 -24 -700 7 -415 19 -638 47 -913 11 -106 31 -331 45 -502 28
-334 43 -454 75 -610 29 -143 130 -531 190 -730 61 -204 71 -267 45 -295 -40
-45 -108 -17 -219 89 -108 103 -125 109 -294 93 -256 -24 -462 -11 -726 44
-341 72 -828 248 -884 319 -40 50 -24 145 25 145 27 0 135 -30 308 -87 236
-77 335 -78 255 -3 -46 43 -145 88 -370 170 -107 38 -198 74 -203 79 -13 13
12 186 69 475 78 395 203 857 380 1397 90 275 136 500 154 749 10 141 20 176
64 239 94 133 111 177 121 317 3 54 11 113 16 131 6 18 41 73 79 124 68 91 90
143 90 209 0 38 17 73 33 67 7 -2 26 -24 42 -50z m8877 -453 c18 -60 -29
-3123 -52 -3403 -10 -123 -38 -202 -94 -268 -37 -44 -180 -138 -257 -169 -93
-38 -368 -70 -383 -45 -3 5 -2 31 3 57 36 190 60 809 71 1869 12 1097 24 1310
86 1440 48 103 336 445 374 445 31 0 32 -48 5 -235 -64 -441 -210 -1127 -300
-1405 -85 -263 -120 -416 -104 -457 12 -33 45 -29 64 7 21 41 83 262 158 565
136 548 171 719 247 1210 44 286 53 315 117 386 41 45 53 46 65 3z m-104
-3806 c19 -19 14 -51 -17 -99 -69 -108 -166 -189 -265 -222 -125 -42 -426 6
-426 68 0 28 39 46 126 56 117 14 299 76 442 150 62 32 116 59 120 59 5 0 13
-5 20 -12z"/>
<path d="M3064 5477 c-9 -23 24 -105 116 -288 573 -1146 1652 -2411 2695
-3159 195 -139 345 -205 345 -151 0 26 -59 74 -330 271 -262 190 -376 280
-555 439 -174 155 -564 544 -711 711 -509 576 -943 1181 -1259 1755 -138 250
-195 347 -232 393 -35 43 -59 53 -69 29z"/>
<path d="M2410 2117 c0 -32 363 -214 980 -493 756 -340 1115 -467 1207 -425
l28 13 -26 22 c-25 22 -140 68 -419 167 -323 115 -798 315 -1295 544 -176 81
-344 156 -374 166 -63 22 -101 24 -101 6z"/>
</g>
</svg>
